<svg height="512" viewBox="0 0 60 59" width="512" xmlns="http://www.w3.org/2000/svg"><g id="Page-1" fill="none" fill-rule="evenodd"><g id="023---Cruise-Ship-Front" fill-rule="nonzero"><path id="Shape" d="m16 17v-10c.0032948-1.10320187.8967981-1.9967052 2-2h24c1.1032019.0032948 1.9967052.89679813 2 2v10" fill="#3b97d3"/><path id="Shape" d="m12 33.22v-14.22c.0032948-1.1032019.8967981-1.9967052 2-2h32c1.1032019.0032948 1.9967052.8967981 2 2v14.22z" fill="#d1d4d1"/><path id="Shape" d="m52.67 37.26-12.74 19.41c-1.7198998-.0199321-3.4338433.2056754-5.09.67-3.1598521.880173-6.5001479.880173-9.66 0h-.01c-1.6594349-.464987-3.3767726-.690598-5.1-.67l-12.74-19.41c-.35009827-.5296047-.42619684-1.1945697-.20479902-1.7895764.22139782-.5950066.71366241-1.0484877 1.32479902-1.2204236l21.55-6.25 21.55 6.25c.6111366.1719359 1.1034012.625417 1.324799 1.2204236.2213978.5950067.1452993 1.2599717-.204799 1.7895764z" fill="#c03a2b"/><g fill="#3b97d3"><circle id="Oval" cx="34" cy="23" r="2"/><circle id="Oval" cx="26" cy="23" r="2"/><circle id="Oval" cx="18" cy="23" r="2"/></g><circle id="Oval" cx="38" cy="11" fill="#b0d3f0" r="2"/><circle id="Oval" cx="30" cy="11" fill="#b0d3f0" r="2"/><circle id="Oval" cx="22" cy="11" fill="#b0d3f0" r="2"/><circle id="Oval" cx="42" cy="23" fill="#3b97d3" r="2"/><path id="Shape" d="m27 0h6c.5522847 0 1 .44771525 1 1v4h-8v-4c0-.55228475.4477153-1 1-1z" fill="#285680"/><path id="Shape" d="m52.67 37.26-6.18 9.41-16.49-5.67v-13l21.55 6.25c.6111366.1719359 1.1034012.625417 1.324799 1.2204236.2213978.5950067.1452993 1.2599717-.204799 1.7895764z" fill="#e64c3c"/><path id="Shape" d="m43.88 50.65-3.95 6.02c-1.7198998-.0199321-3.4338433.2056754-5.09.67-1.5731184.4356001-3.1976878.6575909-4.83.66h-.01v-12z" fill="#e64c3c"/><path id="Shape" d="m30 41v5l-13.88 4.65-2.61-3.98z" fill="#d1d4d1"/><path id="Shape" d="m46.49 46.67-2.61 3.98-13.88-4.65v-5z" fill="#fff"/><path id="Shape" d="m10.667 59c-1.72051006-.0021536-3.4327806-.2376329-5.09-.7l-4.844-1.336c-.34440404-.0953899-.61175659-.3672712-.70134853-.7132288-.08959193-.3459576.0121879-.7134323.26700001-.964s.62394449-.3461611.96834852-.2507712l4.843 1.339c2.98306567.8370076 6.1389343.8370076 9.122 0 3.3375522-.936486 6.8684478-.936486 10.206 0 2.9863252.8380028 6.1456748.8380028 9.132 0 3.3355412-.9362906 6.8644588-.9362906 10.2 0 2.9865254.8390149 6.1464746.8390149 9.133 0l4.829-1.337c.344404-.0953899.7135364.0002035.9683485.2507712s.3565919.6180424.267.964-.3569445.6178389-.7013485.7132288l-4.829 1.334c-3.3354346.9370643-6.8645654.9370643-10.2 0-2.9856477-.8379892-6.1443523-.8379892-9.13 0-3.3355128.9364968-6.8644872.9364968-10.2 0-2.9860113-.8378157-6.1449887-.8378157-9.131 0-1.6635443.463126-3.3821927.6986033-5.109.7z" fill="#2fa8cc"/></g></g></svg>