<svg height="512" viewBox="0 0 60 60" width="512" xmlns="http://www.w3.org/2000/svg"><g id="Page-1" fill="none" fill-rule="evenodd"><g id="023---Cruise-Ship-Front" fill-rule="nonzero"><path id="Shape" d="m16 18v-10c.0032948-1.10320187.8967981-1.9967052 2-2h24c1.1032019.0032948 1.9967052.89679813 2 2v10z" fill="#ffdc00"/><path id="Shape" d="m42 6h-3c1.1032019.0032948 1.9967052.89679813 2 2v10h3v-10c-.0032948-1.10320187-.8967981-1.9967052-2-2z" fill="#fec108"/><path id="Shape" d="m52.67 38.26-12.74 19.41c-1.7198998-.0199321-3.4338433.2056754-5.09.67-3.1598521.880173-6.5001479.880173-9.66 0h-.01c-1.6594349-.464987-3.3767726-.690598-5.1-.67l-12.74-19.41c-.35009827-.5296047-.42619684-1.1945697-.20479902-1.7895764.22139782-.5950066.71366241-1.0484877 1.32479902-1.2204236l3.55-1.03 18-5.22 18 5.22 3.55 1.03c.6111366.1719359 1.1034012.625417 1.324799 1.2204236.2213978.5950067.1452993 1.2599717-.204799 1.7895764z" fill="#7f8e94"/><path id="Shape" d="m51.55 35.25-3.55-1.03-18-5.22-1.5.435 16.5 4.785 3.55 1.03c.6111366.1719359 1.1034012.625417 1.324799 1.2204236.2213978.5950067.1452993 1.2599717-.204799 1.7895764l-12.74 19.41c-1.7198998-.0199321-3.4338433.2056754-5.09.67-1.0905009.2985109-2.206238.4956814-3.333.589.5.042 1 .071 1.5.071 1.6323122-.0024091 3.2568816-.2243999 4.83-.66 1.6561567-.4643246 3.3701002-.6899321 5.09-.67l12.743-19.41c.3500983-.5296047.4261968-1.1945697.204799-1.7895764-.2213978-.5950066-.7136624-1.0484877-1.324799-1.2204236z" fill="#545c60"/><path id="Shape" d="m48 20v14.22l-18-5.22-18 5.22v-14.22c.0032948-1.1032019.8967981-1.9967052 2-2h32c1.1032019.0032948 1.9967052.8967981 2 2z" fill="#ff9801"/><path id="Shape" d="m46 18h-3c1.1032019.0032948 1.9967052.8967981 2 2v13.35l3 .87v-14.22c-.0032948-1.1032019-.8967981-1.9967052-2-2z" fill="#f57c00"/><path id="Shape" d="m16.12 51.65 13.88-4.65 13.88 4.65 2.61-3.98-16.49-5.67-16.49 5.67z" fill="#f44335"/><path id="Shape" d="m30 42-1.5.516 14.99 5.154-2.07 3.156 2.46.824 2.61-3.98z" fill="#c81e1e"/><circle id="Oval" cx="34" cy="24" fill="#02a9f4" r="2"/><circle id="Oval" cx="26" cy="24" fill="#02a9f4" r="2"/><circle id="Oval" cx="18" cy="24" fill="#02a9f4" r="2"/><circle id="Oval" cx="38" cy="12" fill="#02a9f4" r="2"/><circle id="Oval" cx="30" cy="12" fill="#02a9f4" r="2"/><circle id="Oval" cx="22" cy="12" fill="#02a9f4" r="2"/><circle id="Oval" cx="42" cy="24" fill="#02a9f4" r="2"/><path id="Shape" d="m27 1h6c.5522847 0 1 .44771525 1 1v4h-8v-4c0-.55228475.4477153-1 1-1z" fill="#f44335"/><g fill="#000"><path id="Shape" d="m6.11 57.375-4.843-1.339c-.34440403-.0953899-.71353641.0002035-.96834852.2507712-.25481211.2505677-.35659194.6180424-.26700001.964.08959194.3459576.35694449.6178389.70134853.7132288l4.844 1.336c3.33544883.936961 6.8645512.936961 10.2 0 2.9860113-.8378157 6.1449887-.8378157 9.131 0 3.3355128.9364968 6.8644872.9364968 10.2 0 2.9856477-.8379892 6.1443523-.8379892 9.13 0 3.3354346.9370643 6.8645654.9370643 10.2 0l4.83-1.337c.344404-.0953899.6117566-.3672712.7013485-.7132288s-.0121879-.7134323-.267-.964-.6239445-.3461611-.9683485-.2507712l-4.834 1.338c-2.9865254.8390149-6.1464746.8390149-9.133 0-1.0056971-.2757275-2.0320407-.4696927-3.069-.58l11.8-17.985c.5250909-.7946146.6394639-1.7921029.3078586-2.684947-.3316052-.8928442-1.0693743-1.5738442-1.9858586-1.833053l-2.82-.821v-13.469c0-1.6568542-1.3431458-3-3-3h-1v-9c0-1.65685425-1.3431458-3-3-3h-7v-3c0-1.1045695-.8954305-2-2-2h-6c-1.1045695 0-2 .8954305-2 2v3h-7c-1.6568542 0-3 1.34314575-3 3v9h-1c-1.6568542 0-3 1.3431458-3 3v13.469l-2.824.819c-.91759611.2586931-1.65658388.9398616-1.98901401 1.833391-.33243013.8935295-.21836376 1.8920696.30701401 2.687609l11.806 17.985c-1.0361421.1118993-2.0617208.3061808-3.067.581-2.9833796.8371946-6.13962043.8371946-9.123 0zm28.46 0c-1.1658739.3226586-2.3624607.5217545-3.57.594v-3.969c0-.5522847-.4477153-1-1-1s-1 .4477153-1 1v3.968c-1.2050576-.0748061-2.3989333-.2759081-3.562-.6-1.5706863-.4364011-3.1909782-.6689757-4.821-.692l-2.95-4.495 11.333-3.791v1.61c0 .5522847.4477153 1 1 1s1-.4477153 1-1v-1.61l11.333 3.8-2.95 4.495c-1.6271305.0246108-3.2444917.2564785-4.813.69zm-3.57-13.975 13.951 4.8-1.483 2.259-12.468-4.179zm-2 2.88-12.468 4.177-1.483-2.257 13.951-4.8zm22.937-9.462c.1122929.2964175.0750762.6287627-.1.893l-5.751 8.761-15.086-5.186v-10.955l20.276 5.881c.3051685.0835816.5512881.3092223.661.606zm-24.937-34.818h6v3h-6zm-10 6c0-.55228475.4477153-1 1-1h24c.5522847 0 1 .44771525 1 1v9h-26zm-4 12c0-.5522847.4477153-1 1-1h32c.5522847 0 1 .4477153 1 1v12.889l-16.722-4.849c-.1815442-.053-.3744558-.053-.556 0l-16.722 4.849zm-4.938 16.818c.11150905-.2982129.35976349-.5245078.667-.608l20.271-5.879v10.955l-15.083 5.186-5.75-8.76c-.17660223-.2638222-.21566784-.596438-.105-.894z"/><path id="Shape" d="m34 27c1.6568542 0 3-1.3431458 3-3s-1.3431458-3-3-3-3 1.3431458-3 3 1.3431458 3 3 3zm0-4c.5522847 0 1 .4477153 1 1s-.4477153 1-1 1-1-.4477153-1-1 .4477153-1 1-1z"/><path id="Shape" d="m26 21c-1.6568542 0-3 1.3431458-3 3s1.3431458 3 3 3 3-1.3431458 3-3-1.3431458-3-3-3zm0 4c-.5522847 0-1-.4477153-1-1s.4477153-1 1-1 1 .4477153 1 1-.4477153 1-1 1z"/><path id="Shape" d="m18 21c-1.6568542 0-3 1.3431458-3 3s1.3431458 3 3 3 3-1.3431458 3-3-1.3431458-3-3-3zm0 4c-.5522847 0-1-.4477153-1-1s.4477153-1 1-1 1 .4477153 1 1-.4477153 1-1 1z"/><path id="Shape" d="m38 9c-1.6568542 0-3 1.3431458-3 3s1.3431458 3 3 3 3-1.3431458 3-3-1.3431458-3-3-3zm0 4c-.5522847 0-1-.4477153-1-1s.4477153-1 1-1 1 .4477153 1 1-.4477153 1-1 1z"/><path id="Shape" d="m30 9c-1.6568542 0-3 1.3431458-3 3s1.3431458 3 3 3 3-1.3431458 3-3-1.3431458-3-3-3zm0 4c-.5522847 0-1-.4477153-1-1s.4477153-1 1-1 1 .4477153 1 1-.4477153 1-1 1z"/><path id="Shape" d="m22 9c-1.2133867 0-2.3072956.73092653-2.7716386 1.8519497-.464343 1.1210232-.2076757 2.4113767.6503183 3.2693706.8579939.857994 2.1483474 1.1146613 3.2693706.6503183s1.8519497-1.5582519 1.8519497-2.7716386c0-1.6568542-1.3431458-3-3-3zm0 4c-.5522847 0-1-.4477153-1-1s.4477153-1 1-1 1 .4477153 1 1-.4477153 1-1 1z"/><path id="Shape" d="m42 27c1.6568542 0 3-1.3431458 3-3s-1.3431458-3-3-3-3 1.3431458-3 3 1.3431458 3 3 3zm0-4c.5522847 0 1 .4477153 1 1s-.4477153 1-1 1-1-.4477153-1-1 .4477153-1 1-1z"/></g></g></g></svg>