<svg height="512pt" viewBox="-91 0 512 512" width="512pt" xmlns="http://www.w3.org/2000/svg"><path d="m270 376c0-2.699219 0-5.699219-.300781-8.402344l30.300781-20.097656-45-78-30.601562 20.398438c-4.796876-3.300782-9.300782-6-14.398438-8.398438v-40.5h-90v40.5c-5.097656 2.398438-9.601562 5.097656-14.398438 8.398438l-30.601562-20.398438-45 78 30.300781 20.097656c-.300781 2.703125-.300781 5.703125-.300781 8.402344s0 5.699219.300781 8.398438l-30.300781 20.101562 45 78 30.601562-20.402344c4.796876 3.300782 9.300782 6 14.398438 8.398438v41.503906h90v-41.5c5.097656-2.398438 9.601562-5.101562 14.398438-8.398438l30.601562 20.398438 45-78-30.300781-20.101562c.300781-2.699219.300781-5.699219.300781-8.398438zm-105 45c-24.902344 0-45-20.101562-45-45 0-24.902344 20.097656-45 45-45s45 20.097656 45 45c0 24.898438-20.097656 45-45 45zm0 0" fill="#fdbf00"/><path d="m269.699219 384.398438 30.300781 20.101562-45 78-30.601562-20.398438c-4.796876 3.296876-9.300782 6-14.398438 8.398438v41.5h-45v-91c24.902344 0 45-20.101562 45-45 0-24.902344-20.097656-45-45-45v-90h45v40.5c5.097656 2.398438 9.601562 5.097656 14.398438 8.398438l30.601562-20.398438 45 78-30.300781 20.097656c.300781 2.703125.300781 5.699219.300781 8.402344 0 2.699219 0 5.699219-.300781 8.398438zm0 0" fill="#ff9100"/><path d="m0 0v211h128.699219l36.300781 36.300781 36.300781-36.300781h128.699219v-211zm0 0" fill="#64e1dc"/><path d="m330 0v211h-128.699219l-36.300781 36.300781v-247.300781zm0 0" fill="#00c8c8"/><path d="m60 61h210v30h-210zm0 0" fill="#efeff4"/><path d="m60 121h210v30h-210zm0 0" fill="#efeff4"/><g fill="#dadae5"><path d="m165 61h105v30h-105zm0 0"/><path d="m165 121h105v30h-105zm0 0"/></g></svg>