<svg id="color" height="512" viewBox="0 0 24 24" width="512" xmlns="http://www.w3.org/2000/svg"><path d="m5 6c-1.654 0-3-1.346-3-3s1.346-3 3-3 3 1.346 3 3-1.346 3-3 3" fill="#eceff1"/><path d="m6.25 24h-2.5c-.965 0-1.75-.785-1.75-1.75v-5.382c0-.095-.053-.181-.138-.224l-.895-.447c-.596-.298-.967-.898-.967-1.565v-3.882c0-2.068 1.682-3.75 3.75-3.75h2.5c2.068 0 3.75 1.682 3.75 3.75v3.882c0 .667-.371 1.267-.967 1.565l-.895.447c-.085.043-.138.129-.138.224v5.382c0 .965-.785 1.75-1.75 1.75" fill="#eceff1"/><path d="m23.491 11.826-5.25-1.786c-.156-.054-.326-.054-.482 0l-5.25 1.786c-.305.103-.509.388-.509.71v4.018c0 4.904 5.474 7.288 5.707 7.387.188.08.397.08.586 0 .233-.1 5.707-2.483 5.707-7.387v-4.018c0-.322-.204-.607-.509-.71" fill="#4caf50"/><path d="m21.286 15.618-2.75 3.5c-.351.447-1.006.512-1.436.142l-1.75-1.5c-.42-.359-.469-.991-.108-1.41.359-.419.991-.467 1.409-.108l.958.821 2.105-2.679c.341-.434.969-.511 1.404-.169.434.34.51.969.168 1.403" fill="#fff"/><path d="m5 0c-1.654 0-3 1.346-3 3s1.346 3 3 3z" fill="#cdd0d2"/><path d="m5 7h-1.25c-2.068 0-3.75 1.682-3.75 3.75v3.882c0 .667.371 1.267.967 1.565l.895.447c.085.043.138.129.138.224v5.382c0 .965.785 1.75 1.75 1.75h1.25z" fill="#cdd0d2"/><path d="m18 10c-.082 0-.163.013-.241.04l-5.25 1.786c-.305.103-.509.388-.509.71v4.018c0 4.904 5.474 7.288 5.707 7.387.094.039.194.059.293.059v-4.532c-.082.021-.166.032-.251.032-.23 0-.461-.079-.649-.241l-1.75-1.5c-.42-.359-.469-.991-.108-1.41.197-.23.477-.349.759-.349.23 0 .462.079.649.24l.958.821.392-.498z" fill="#429846"/><path d="m16.001 16c-.282 0-.562.118-.76.349-.36.419-.312 1.051.108 1.41l1.75 1.5c.188.162.419.241.649.241.085 0 .169-.011.251-.032v-2.905l-.392.498-.958-.821c-.187-.161-.418-.24-.648-.24" fill="#dedede"/></svg>