<svg height="512" viewBox="0 0 512 512" width="512" xmlns="http://www.w3.org/2000/svg"><g id="filled_outline" data-name="filled outline"><path d="m344 488h-48v-96h-240v-96h288z" fill="#c5711e"/><g fill="#da922a"><path d="m88 128h32v168h-32z"/><path d="m184 128h32v168h-32z"/><path d="m280 128h32v168h-32z"/></g><path d="m88 160h32v32h-32z" fill="#b94137"/><path d="m184 160h32v32h-32z" fill="#b94137"/><path d="m280 160h32v32h-32z" fill="#b94137"/><path d="m56 384h248v104h-248z" fill="#b0651b"/><path d="m24 392h272v96h-272z" fill="#e08122"/><path d="m56 440h48v48h-48z" fill="#a83b32"/><path d="m56 448h40v40h-40z" fill="#b94137"/><path d="m136 440h48v48h-48z" fill="#a83b32"/><path d="m136 448h40v40h-40z" fill="#b94137"/><path d="m216 440h48v48h-48z" fill="#a83b32"/><path d="m216 448h40v40h-40z" fill="#b94137"/><path d="m136 344v16h-32v-16a16 16 0 1 1 32 0z" fill="#70400e"/><path d="m216 344v16h-32v-16a16 16 0 1 1 32 0z" fill="#70400e"/><path d="m296 344v16h-32v-16a16 16 0 1 1 32 0z" fill="#70400e"/><path d="m128 344v16h-24v-16a16.012 16.012 0 0 1 12-15.5 15.987 15.987 0 0 1 12 15.5z" fill="#834b10"/><path d="m208 344v16h-24v-16a16.012 16.012 0 0 1 12-15.5 15.987 15.987 0 0 1 12 15.5z" fill="#834b10"/><path d="m288 344v16h-24v-16a16.012 16.012 0 0 1 12-15.5 15.987 15.987 0 0 1 12 15.5z" fill="#834b10"/><path d="m152 296h-96v-64z" fill="#70400e"/><path d="m248 296h-96v-64z" fill="#70400e"/><path d="m136 296h-80v-53.33z" fill="#834b10"/><path d="m232 296h-80v-53.33z" fill="#834b10"/><path d="m112 104h-16a16.019 16.019 0 0 0 -16-16 32.036 32.036 0 0 1 -32-32h16a16.019 16.019 0 0 0 16 16 32.036 32.036 0 0 1 32 32z" fill="#fbd699"/><path d="m208 104h-16a16.019 16.019 0 0 0 -16-16 32.036 32.036 0 0 1 -32-32h16a16.019 16.019 0 0 0 16 16 32.036 32.036 0 0 1 32 32z" fill="#fbd699"/><path d="m304 104h-16a16.019 16.019 0 0 0 -16-16 32.036 32.036 0 0 1 -32-32h16a16.019 16.019 0 0 0 16 16 32.036 32.036 0 0 1 32 32z" fill="#fbd699"/><path d="m72 408h16v16h-16z" fill="#834b10"/><path d="m152 408h16v16h-16z" fill="#834b10"/><path d="m232 408h16v16h-16z" fill="#834b10"/><path d="m56 296h288v8h-288z" fill="#b0651b"/><path d="m88 128h32v16h-32z" fill="#fbb540"/><path d="m184 128h32v16h-32z" fill="#fbb540"/><path d="m280 128h32v16h-32z" fill="#fbb540"/><path d="m344 296h-96v-64z" fill="#70400e"/><path d="m328 296h-80v-53.33z" fill="#834b10"/><path d="m488 488h-192l22.61-71.59q1.32-4.2 2.58-8.41a547.143 547.143 0 0 0 17.46-80 546.678 546.678 0 0 0 5.35-76.33v-35.67h96v35.67a547.048 547.048 0 0 0 22.81 156.33q1.26 4.215 2.58 8.41z" fill="#fbb540"/><path d="m462.81 408h-141.62a547.143 547.143 0 0 0 17.46-80h106.7a547.143 547.143 0 0 0 17.46 80z" fill="#da922a"/><path d="m336 184h112v32h-112z" fill="#fbb540"/><path d="m344 216h96v16h-96z" fill="#da922a"/><path d="m24 496h464a8 8 0 0 0 7.629-10.409l-22.607-71.586a538.457 538.457 0 0 1 -25.022-162.334v-27.671a8 8 0 0 0 8-8v-32a8 8 0 0 0 -8-8h-112a8 8 0 0 0 -8 8v32a8 8 0 0 0 8 8v27.671q0 14.457-.786 28.857l-15.214-10.142v-142.386a8 8 0 0 0 -8-8h-32a8 8 0 0 0 -8 8v110.386l-19.563-13.042a8 8 0 0 0 -12.437 6.656v49.052l-16-10.667v-142.385a8 8 0 0 0 -8-8h-32a8 8 0 0 0 -8 8v110.385l-19.562-13.041a8 8 0 0 0 -12.438 6.656v49.052l-16-10.667v-142.385a8 8 0 0 0 -8-8h-32a8 8 0 0 0 -8 8v110.385l-19.562-13.041a8 8 0 0 0 -12.438 6.656v152h-24a8 8 0 0 0 -8 8v96a8 8 0 0 0 8 8zm72-16h-32v-32h32zm80 0h-32v-32h32zm80 0h-32v-32h32zm201.765-61.177 19.319 61.177h-170.168l19.319-61.177c.3-.939.57-1.883.862-2.823h129.803c.3.94.569 1.884.865 2.823zm-113.765-226.823h96v16h-96zm92.24 128h-88.48a555.161 555.161 0 0 0 4.24-68.329v-27.671h80v27.671a555.161 555.161 0 0 0 4.24 68.329zm-90.678 16h92.876a554.213 554.213 0 0 0 13.76 64h-120.398a554.213 554.213 0 0 0 13.762-64zm-57.562-200h16v16h-16zm0 32h16v16h-16zm0 32h16v59.719l-16-10.667zm-32 46.947 61.574 41.053h-61.574zm-64-110.947h16v16h-16zm0 32h16v16h-16zm0 32h16v59.719l-16-10.667zm-32 46.948 61.578 41.052h-61.578zm-64-110.948h16v16h-16zm0 32h16v16h-16zm0 32h16v59.719l-16-10.667zm-32 46.948 61.578 41.052h-61.578zm0 57.052h269.453a538.55 538.55 0 0 1 -22.475 110.005l-6.978 22.095v-44.1a8 8 0 0 0 -8-8h-232zm-32 96h256v80h-16v-40a8 8 0 0 0 -8-8h-48a8 8 0 0 0 -8 8v40h-16v-40a8 8 0 0 0 -8-8h-48a8 8 0 0 0 -8 8v40h-16v-40a8 8 0 0 0 -8-8h-48a8 8 0 0 0 -8 8v40h-16z"/><path d="m120 320a24.027 24.027 0 0 0 -24 24v16a8 8 0 0 0 8 8h32a8 8 0 0 0 8-8v-16a24.027 24.027 0 0 0 -24-24zm8 32h-16v-8a8 8 0 0 1 16 0z"/><path d="m200 320a24.027 24.027 0 0 0 -24 24v16a8 8 0 0 0 8 8h32a8 8 0 0 0 8-8v-16a24.027 24.027 0 0 0 -24-24zm8 32h-16v-8a8 8 0 0 1 16 0z"/><path d="m304 360v-16a24 24 0 0 0 -48 0v16a8 8 0 0 0 8 8h32a8 8 0 0 0 8-8zm-16-8h-16v-8a8 8 0 0 1 16 0z"/><path d="m80 88a16.019 16.019 0 0 1 16 16h16a32.036 32.036 0 0 0 -32-32 16.019 16.019 0 0 1 -16-16h-16a32.036 32.036 0 0 0 32 32z"/><path d="m176 88a16.019 16.019 0 0 1 16 16h16a32.036 32.036 0 0 0 -32-32 16.019 16.019 0 0 1 -16-16h-16a32.036 32.036 0 0 0 32 32z"/><path d="m272 88a16.019 16.019 0 0 1 16 16h16a32.036 32.036 0 0 0 -32-32 16.019 16.019 0 0 1 -16-16h-16a32.036 32.036 0 0 0 32 32z"/><path d="m72 408h16v16h-16z"/><path d="m152 408h16v16h-16z"/><path d="m232 408h16v16h-16z"/></g></svg>