<svg height="608pt" viewBox="-19 -25 608 608" width="608pt" xmlns="http://www.w3.org/2000/svg"><path d="m505.9375 408.035156c0 47.347656-38.382812 85.738282-85.738281 85.738282-47.351563 0-85.738281-38.390626-85.738281-85.738282 0-47.351562 38.386718-85.738281 85.738281-85.738281 47.355469 0 85.738281 38.386719 85.738281 85.738281zm0 0" fill="#6fe3ff"/><path d="m445.488281 50.820312v90.597657l-.238281.328125-23.472656-17.097656-29.0625-21.164063v-52.664063zm0 0" fill="#6fe3ff"/><path d="m500 181.59375h-73.222656v76.242188h-28.605469l-3.132813 32.636718c-14.304687 3.09375-27.910156 8.828125-40.113281 16.910156l-25.164062-20.835937-31.058594 31.050781 20.832031 25.175782c-8.011718 12.230468-13.738281 25.820312-16.898437 40.097656l-32.636719 3.148437v44.039063l32.636719 3.136718c3.085937 14.308594 8.816406 27.910157 16.898437 40.113282l-2.949218 3.558594h-243.363282v-295.273438h-73.222656l250-182.011719 142.714844 103.902344 29.0625 21.164063 23.472656 17.097656zm0 0" fill="#f8ec7d"/><path d="m570 386.019531v44.039063l-32.234375 3.136718c-3.171875 14.285157-8.902344 27.871094-16.914063 40.113282l20.835938 25.160156-31.0625 31.066406-25.160156-20.839844c-12.203125 8.082032-25.800782 13.8125-40.105469 16.898438l-3.148437 32.640625h-44.039063l-3.132813-32.640625c-14.28125-3.160156-27.875-8.886719-40.113281-16.898438l-25.164062 20.839844-31.058594-31.066406 17.882813-21.601562 2.949218-3.558594c-8.082031-12.203125-13.8125-25.804688-16.898437-40.113282l-32.636719-3.136718v-44.039063l32.636719-3.148437c3.160156-14.277344 8.886719-27.867188 16.898437-40.097656l-20.832031-25.175782 31.058594-31.050781 25.164062 20.835937c12.203125-8.082031 25.808594-13.816406 40.113281-16.910156l3.132813-32.636718h44.039063l3.148437 32.636718c14.285156 3.164063 27.867187 8.894532 40.105469 16.910156l25.160156-20.835937 30.671875 31.050781-20.832031 25.175782c8.085937 12.191406 13.8125 25.792968 16.898437 40.097656zm-64.0625 22.015625c0-47.351562-38.382812-85.738281-85.738281-85.738281-47.351563 0-85.738281 38.386719-85.738281 85.738281 0 47.347656 38.386718 85.738282 85.738281 85.738282 47.347656-.003907 85.738281-38.390626 85.738281-85.738282zm0 0" fill="#e48e66"/><path d="m409.101562 439.445312c-1.957031 0-3.84375-.765624-5.238281-2.132812l-27.1875-26.550781c-2.964843-2.890625-3.023437-7.644531-.128906-10.605469 2.898437-2.964844 7.640625-3.019531 10.605469-.128906l21.949218 21.4375 43.75-42.710938c1.914063-1.890625 4.691407-2.613281 7.285157-1.890625 2.59375.722657 4.597656 2.777344 5.257812 5.386719.660157 2.605469-.125 5.371094-2.066406 7.234375l-48.984375 47.828125c-1.398438 1.371094-3.285156 2.132812-5.242188 2.132812zm0 0" fill="#2561a1"/></svg>