<svg id="Capa_1" enable-background="new 0 0 512 512" height="512" viewBox="0 0 512 512" width="512" xmlns="http://www.w3.org/2000/svg"><g><path d="m384.39 177.67c0 15.2-3.34 29.75-9.73 42.91-3.69 7.61-15.07 30.31-15.07 30.31l-103.59 10.93-108.81-22s-5.31-9.19-9.85-19.24c-6.03-13.33-9.73-27.71-9.73-42.91 0-35.12 18.46-66.47 47.34-87.04 0 0 13.37 30.73 38.71 24.09 21.17-5.55 19.96-30.65 9.78-51.36-17.64-35.88 32.56-63.36 32.56-63.36v.15c0 2.53.57 36.76 31.4 50.11 27.43 11.87 34.96 37.78 22.18 57.13-11.86 17.94.72 28.82 11.76 32.69 28.08 9.86 44.43-20.64 44.43-20.64 11.82 16.98 18.62 36.91 18.62 58.23z" fill="#ffc200"/><path d="m384.39 177.67c0 15.2-3.34 29.75-9.73 42.91-3.69 7.61-15.07 30.31-15.07 30.31l-103.59 10.93v-261.67c0 2.53.57 36.76 31.4 50.11 27.43 11.87 34.96 37.78 22.18 57.13-11.86 17.94.72 28.82 11.76 32.69 28.08 9.86 44.43-20.64 44.43-20.64 11.82 16.98 18.62 36.91 18.62 58.23z" fill="#ffa000"/><path d="m370.88 293.1v169.9h-229.76v-169.9l114.88-63.6z" fill="#ff6c6c"/><path d="m370.88 293.1v169.9h-114.88v-233.5z" fill="#f37"/><path d="m420.11 267.47c0 30.16-31.74 49.78-58.71 36.29l-105.4-52.7-105.4 52.7c-5.94 2.97-12.11 4.34-18.12 4.34-21.29 0-40.59-17.11-40.59-40.63l164.11-82.05 65.65 32.82 25.13 32.57 40.51.25z" fill="#36404f"/><path d="m223.18 342.09h65.64v120.91h-65.64z" fill="#7f4245"/><path d="m256 342.09h32.82v120.91h-32.82z" fill="#6f3342"/><path d="m420.11 267.47c0 30.16-31.74 49.78-58.71 36.29l-105.4-52.7v-65.64l65.65 32.82 25.13 32.57 40.51.25z" fill="#1f223a"/><path d="m0 448h512v64h-512z" fill="#ffc200"/><path d="m256 448h256v64h-256z" fill="#ffa000"/></g></svg>