<svg height="512" viewBox="0 0 60 47" width="512" xmlns="http://www.w3.org/2000/svg"><g id="Page-1" fill="none" fill-rule="evenodd"><g id="047---Cargo-Ship" fill-rule="nonzero"><path id="Shape" d="m5 7 5-1-.839-4.2c-.09512857-.46603466-.50535578-.80057265-.981-.8h-2.18c-.55228475 0-1 .44771525-1 1z" fill="#3f5c6c"/><path id="Shape" d="m3 6h9v5c0 .5522847-.4477153 1-1 1h-7c-.55228475 0-1-.4477153-1-1z" fill="#e64c3c" transform="matrix(-1 0 0 -1 15 18)"/><path id="Shape" d="m2 25v-13c0-.5522847.44771525-1 1-1h9.2c.4658418-.0002987.8701857.3211028.975.775l2.825 12.225z" fill="#3f5c6c"/><path id="Shape" d="m15.08 20h-6.08c-.55228475 0-1-.4477153-1-1v-3c0-.5522847.44771525-1 1-1h4.92z" fill="#2fa8cc"/><path id="Shape" d="m44 1v7h-12v-7c0-.55228475.4477153-1 1-1h10c.5522847 0 1 .44771525 1 1z" fill="#26b99a"/><path id="Shape" d="m40 9c-.5522847 0-1-.44771525-1-1v-4c0-.55228475.4477153-1 1-1s1 .44771525 1 1v4c0 .55228475-.4477153 1-1 1z" fill="#14a085"/><path id="Shape" d="m36 9c-.5522847 0-1-.44771525-1-1v-4c0-.55228475.4477153-1 1-1s1 .44771525 1 1v4c0 .55228475-.4477153 1-1 1z" fill="#14a085"/><path id="Shape" d="m38 8v8h-12v-7c0-.55228475.4477153-1 1-1z" fill="#f29c1f"/><path id="Shape" d="m50 9v7h-12v-8h11c.5522847 0 1 .44771525 1 1z" fill="#f0c419"/><path id="Shape" d="m46 17c-.5522847 0-1-.4477153-1-1v-4c0-.5522847.4477153-1 1-1s1 .4477153 1 1v4c0 .5522847-.4477153 1-1 1z" fill="#f29c1f"/><path id="Shape" d="m42 17c-.5522847 0-1-.4477153-1-1v-4c0-.5522847.4477153-1 1-1s1 .4477153 1 1v4c0 .5522847-.4477153 1-1 1z" fill="#f29c1f"/><path id="Shape" d="m34 17c-.5522847 0-1-.4477153-1-1v-4c0-.5522847.4477153-1 1-1s1 .4477153 1 1v4c0 .5522847-.4477153 1-1 1z" fill="#e57e25"/><path id="Shape" d="m30 17c-.5522847 0-1-.4477153-1-1v-4c0-.5522847.4477153-1 1-1s1 .4477153 1 1v4c0 .5522847-.4477153 1-1 1z" fill="#e57e25"/><path id="Shape" d="m32 16v8h-12v-7c0-.5522847.4477153-1 1-1z" fill="#f0c419"/><path id="Rectangle-path" d="m32 16h12v8h-12z" fill="#26b99a"/><g fill="#f29c1f"><path id="Shape" d="m56 17v4h-7.92c-.6706817-.0021102-1.2977731.3320882-1.67.89l-.81 1.22c-.3568572.5392173-.9536653.8711918-1.6.89v-8h11c.5522847 0 1 .4477153 1 1z"/><path id="Shape" d="m28 25c-.5522847 0-1-.4477153-1-1v-4c0-.5522847.4477153-1 1-1s1 .4477153 1 1v4c0 .5522847-.4477153 1-1 1z"/><path id="Shape" d="m24 25c-.5522847 0-1-.4477153-1-1v-4c0-.5522847.4477153-1 1-1s1 .4477153 1 1v4c0 .5522847-.4477153 1-1 1z"/></g><path id="Shape" d="m40 25c-.5522847 0-1-.4477153-1-1v-4c0-.5522847.4477153-1 1-1s1 .4477153 1 1v4c0 .5522847-.4477153 1-1 1z" fill="#14a085"/><path id="Shape" d="m36 25c-.5522847 0-1-.4477153-1-1v-4c0-.5522847.4477153-1 1-1s1 .4477153 1 1v4c0 .5522847-.4477153 1-1 1z" fill="#14a085"/><path id="Shape" d="m52 22c-.5522847 0-1-.4477153-1-1v-1c0-.5522847.4477153-1 1-1s1 .4477153 1 1v1c0 .5522847-.4477153 1-1 1z" fill="#e57e25"/><path id="Shape" d="m48 22c-.5522847 0-1-.4477153-1-1v-1c0-.5522847.4477153-1 1-1s1 .4477153 1 1v1c0 .5522847-.4477153 1-1 1z" fill="#e57e25"/><path id="Shape" d="m58.94 22.34-4.52 12.66 3.57 4.28-3.83 1.06c-3.1598521.880173-6.5001479.880173-9.66 0h-.01c-3.1585046-.8899783-6.5014954-.8899783-9.66 0h-.01c-3.1598521.880173-6.5001479.880173-9.66 0-3.1585046-.8899783-6.5014954-.8899783-9.66 0h-.01c-2.9670687.830866-6.09875142.8790987-9.09.14l-5.34-15.15c-.106695-.305198-.05925277-.643149.12735077-.9071731.18660355-.2640242.48934135-.4215407.81264923-.4228269h42c.6463347-.0188082 1.2431428-.3507827 1.6-.89l.81-1.22c.3722269-.5579118.9993183-.8921102 1.67-.89h9.92c.3258099.0001386.6311253.1589911.8182321.4257178s.2325433.6078823.1217679.9142822z" fill="#e64c3c"/><path id="Shape" d="m57.99 39.28-3.83 1.06c-3.1598521.880173-6.5001479.880173-9.66 0h-.01c-3.1585046-.8899783-6.5014954-.8899783-9.66 0h-.01c-3.1598521.880173-6.5001479.880173-9.66 0-3.1585046-.8899783-6.5014954-.8899783-9.66 0h-.01c-2.9670687.830866-6.09875142.8790987-9.09.14l-1.93-5.48h49.95z" fill="#3f5c6c"/><path id="Shape" d="m49.329 42c-1.7221414-.0023291-3.43604-.237801-5.095-.7-2.9884299-.839984-6.1505701-.839984-9.139 0-3.3355554.9361876-6.8644446.9361876-10.2 0-2.9868677-.8389958-6.1471323-.8389958-9.134 0-3.3353492.9376841-6.86465084.9376841-10.2 0l-4.828-1.336c-.34440404-.0953899-.61175659-.3672712-.70134853-.7132288-.08959193-.3459576.0121879-.7134323.26700001-.964s.62394449-.3461611.96834852-.2507712l4.833 1.337c2.98537009.8400035 6.1446299.8400035 9.13 0 3.3356191-.9357241 6.8643809-.9357241 10.2 0 2.9872668.8385641 6.1477332.8385641 9.135 0 3.3354773-.9367546 6.8645227-.9367546 10.2 0 2.9878946.8389385 6.1491054.8389385 9.137 0l4.842-1.34c.5324025-.14746 1.0835399.1645975 1.231.697.14746.5324025-.1645975 1.0835399-.697 1.231l-4.854 1.339c-1.65896.462199-3.3728586.6976709-5.095.7z" fill="#2fa8cc"/><path id="Shape" d="m49.329 47c-1.7221414-.0023291-3.43604-.237801-5.095-.7-2.9884299-.839984-6.1505701-.839984-9.139 0-3.3355554.9361876-6.8644446.9361876-10.2 0-2.9867966-.8395121-6.1472034-.8395121-9.134 0-3.3353492.9376841-6.86465084.9376841-10.2 0l-4.828-1.336c-.34440404-.0953899-.61175659-.3672712-.70134853-.7132288-.08959193-.3459576.0121879-.7134323.26700001-.964s.62394449-.3461611.96834852-.2507712l4.833 1.337c2.98537009.8400035 6.1446299.8400035 9.13 0 3.3356191-.9357241 6.8643809-.9357241 10.2 0 2.9873448.8379976 6.1476552.8379976 9.135 0 3.3354773-.9367546 6.8645227-.9367546 10.2 0 2.9878946.8389385 6.1491054.8389385 9.137 0l4.842-1.34c.344404-.0953899.7135364.0002035.9683485.2507712s.3565919.6180424.267.964-.3569445.6178389-.7013485.7132288l-4.854 1.339c-1.65896.462199-3.3728586.6976709-5.095.7z" fill="#2fa8cc"/></g></g></svg>