<svg id="Capa_1" enable-background="new 0 0 415.562 415.562" height="512" viewBox="0 0 415.562 415.562" width="512" xmlns="http://www.w3.org/2000/svg"><g><path d="m257.148 33.82c-16.605-1.88-31.538 11.832-48.247 11.787-12.287-.035-24.465-7.543-36.267-4.14-9.017 2.602-15.378 11.035-24.307 13.919-7.608 2.473-16.051.554-23.743 2.681-11.236 3.716-18.224 14.916-16.625 26.641 4.057-5.365 10.135-8.835 16.818-9.601 9.512-1.242 19.256 1.034 28.724-.495 13.237-2.157 24.796-11.584 38.201-11.975 23.97-.702 42.757 27.334 66.465 23.713 12.934-2.356 22.372-13.565 22.491-26.711-.63-13.13-10.495-23.964-23.51-25.819z" fill="#e1e6e9"/><path d="m94.066 93.326h38.072v156.618h-38.072z" fill="#3a556a"/><path d="m20.359 249.943h219.472v131.975h-219.472z" fill="#d5d6db"/><path d="m10.783 238.211h226.55v19.034h-226.55z" fill="#fe7058"/><path d="m201.185 159.217h200.379v222.702h-200.379z" fill="#fcd462"/><path d="m37.598 270.565h9.838v9.838h-9.838z" fill="#3a556a"/><path d="m65.832 270.565h9.838v9.838h-9.838z" fill="#3a556a"/><path d="m94.066 270.565h9.838v9.838h-9.838z" fill="#3a556a"/><path d="m122.305 270.565h9.838v9.838h-9.838z" fill="#3a556a"/><path d="m150.539 270.565h9.838v9.838h-9.838z" fill="#3a556a"/><path d="m178.773 270.565h9.838v9.838h-9.838z" fill="#3a556a"/><path d="m0 369.028h415.562v12.885h-415.562z" fill="#ebf0f3"/><g fill="#3e6b82"><path d="m217.933 183.805h8.627v28.343h-8.627z"/><path d="m244.426 183.805h8.627v28.343h-8.627z"/><path d="m270.919 183.805h8.627v28.343h-8.627z"/><path d="m297.417 183.805h8.627v28.343h-8.627z"/><path d="m323.91 183.805h8.627v28.343h-8.627z"/><path d="m350.403 183.805h8.627v28.343h-8.627z"/><path d="m376.896 183.805h8.627v28.343h-8.627z"/></g><path d="m237.333 299.313h43.33v69.719h-43.33z" fill="#3a556a"/></g></svg>