<svg id="Capa_1" enable-background="new 0 0 510 510" height="512" viewBox="0 0 510 510" width="512" xmlns="http://www.w3.org/2000/svg"><g><path d="m495 510h-136c-8.284 0-15-6.716-15-15s6.716-15 15-15h136c8.284 0 15 6.716 15 15s-6.716 15-15 15z" fill="#47568c"/><path d="m111 224h-96c-8.284 0-15 6.716-15 15v256c0 8.284 6.716 15 15 15h96c8.284 0 15-6.716 15-15v-256c0-8.284-6.716-15-15-15z" fill="#47568c"/><g fill="#d5e8fe"><path d="m103 318h-24c-8.284 0-15-6.716-15-15s6.716-15 15-15h24c8.284 0 15 6.716 15 15s-6.716 15-15 15z"/><path d="m103 382h-24c-8.284 0-15-6.716-15-15s6.716-15 15-15h24c8.284 0 15 6.716 15 15s-6.716 15-15 15z"/><path d="m103 446h-24c-8.284 0-15-6.716-15-15s6.716-15 15-15h24c8.284 0 15 6.716 15 15s-6.716 15-15 15z"/></g><path d="m314 15v64c0 8.28-6.72 15-15 15h-128c-8.28 0-15-6.72-15-15v-64c0-8.28 6.72-15 15-15h128c8.28 0 15 6.72 15 15z" fill="#47568c"/><path d="m314 15v64c0 8.28-6.72 15-15 15h-64v-94h64c8.28 0 15 6.72 15 15z" fill="#29376d"/><path d="m359 244.24v121.2c8.28 0 15 6.72 15 15v129.56h-263c-8.28 0-15-6.72-15-15v-416c0-8.28 6.72-15 15-15h248c8.28 0 15 6.72 15 15v150.24c0 8.28-6.72 15-15 15z" fill="#61729b"/><path d="m359 244.24v121.2c8.28 0 15 6.72 15 15v129.56h-139v-446h124c8.28 0 15 6.72 15 15v150.24c0 8.28-6.72 15-15 15z" fill="#47568c"/><path d="m510 303c0 45.477-61.46 110.7-92.95 139.14-5.757 5.173-14.413 5.116-20.1 0-32.218-29.099-92.95-93.922-92.95-139.14 0-56.46 45.67-102.45 102-102.99 53.83-1.633 104 43.679 104 102.99z" fill="#90eb9f"/><path d="m510 303c0 45.477-61.46 110.7-92.95 139.14-3.207 2.882-7.436 4.149-11.05 3.82 0-264.857-.494-245.96 1-245.96 56.79 0 103 46.21 103 103z" fill="#5bc998"/><path d="m446 303c0 8.28-6.72 15-15 15h-48c-8.28 0-15-6.72-15-15s6.72-15 15-15h48c8.28 0 15 6.72 15 15z" fill="#edf5ff"/><path d="m446 303c0 8.28-6.72 15-15 15h-25.05c0-10.98 0-20.95-.01-30h25.06c8.28 0 15 6.72 15 15z" fill="#d5e8fe"/><path d="m199 158h-24c-8.284 0-15-6.716-15-15s6.716-15 15-15h24c8.284 0 15 6.716 15 15s-6.716 15-15 15z" fill="#edf5ff"/><path d="m295 158h-24c-8.284 0-15-6.716-15-15s6.716-15 15-15h24c8.284 0 15 6.716 15 15s-6.716 15-15 15z" fill="#d5e8fe"/><path d="m199 222h-24c-8.284 0-15-6.716-15-15s6.716-15 15-15h24c8.284 0 15 6.716 15 15s-6.716 15-15 15z" fill="#edf5ff"/><path d="m295 222h-24c-8.284 0-15-6.716-15-15s6.716-15 15-15h24c8.284 0 15 6.716 15 15s-6.716 15-15 15z" fill="#d5e8fe"/><path d="m199 286h-24c-8.284 0-15-6.716-15-15s6.716-15 15-15h24c8.284 0 15 6.716 15 15s-6.716 15-15 15z" fill="#edf5ff"/><path d="m199 350h-24c-8.284 0-15-6.716-15-15s6.716-15 15-15h24c8.284 0 15 6.716 15 15s-6.716 15-15 15z" fill="#edf5ff"/><path d="m199 414h-24c-8.284 0-15-6.716-15-15s6.716-15 15-15h24c8.284 0 15 6.716 15 15s-6.716 15-15 15z" fill="#edf5ff"/></g></svg>