<svg height="512" viewBox="0 0 64 64" width="512" xmlns="http://www.w3.org/2000/svg"><g id="Layer_27" data-name="Layer 27"><path d="m48 42-1.861 5.056a2.244 2.244 0 0 0 .429 2.273l.043.046a1.946 1.946 0 0 0 .494.39l.015.008a1.809 1.809 0 0 0 1.742.007l.025-.014a1.937 1.937 0 0 0 .507-.4l.038-.041a2.244 2.244 0 0 0 .429-2.273z" fill="#c4e2ff"/><path d="m49.861 47.056-1.361-3.7-1.361 3.7a2.244 2.244 0 0 0 .429 2.273l.043.046a1.946 1.946 0 0 0 .494.39l.015.008a1.829 1.829 0 0 0 .376.149 1.884 1.884 0 0 0 .366-.142l.025-.014a1.937 1.937 0 0 0 .507-.4l.038-.041a2.244 2.244 0 0 0 .429-2.269z" fill="#d0e8ff"/><path d="m38 54-1.861 5.056a2.244 2.244 0 0 0 .429 2.273l.043.046a1.946 1.946 0 0 0 .494.39l.015.008a1.809 1.809 0 0 0 1.742.007l.025-.014a1.937 1.937 0 0 0 .507-.4l.038-.041a2.244 2.244 0 0 0 .429-2.273z" fill="#c4e2ff"/><path d="m39.861 59.056-1.361-3.7-1.361 3.7a2.244 2.244 0 0 0 .429 2.273l.043.046a1.946 1.946 0 0 0 .494.39l.015.008a1.829 1.829 0 0 0 .376.149 1.884 1.884 0 0 0 .366-.142l.025-.014a1.937 1.937 0 0 0 .507-.4l.038-.041a2.244 2.244 0 0 0 .429-2.269z" fill="#d0e8ff"/><path d="m16 42-1.861 5.056a2.244 2.244 0 0 0 .429 2.273l.043.046a1.946 1.946 0 0 0 .494.39l.015.008a1.809 1.809 0 0 0 1.742.007l.025-.014a1.937 1.937 0 0 0 .507-.4l.038-.041a2.244 2.244 0 0 0 .429-2.273z" fill="#c4e2ff"/><path d="m17.861 47.056-1.361-3.7-1.361 3.7a2.244 2.244 0 0 0 .429 2.273l.043.046a1.946 1.946 0 0 0 .494.39l.015.008a1.829 1.829 0 0 0 .376.149 1.884 1.884 0 0 0 .366-.142l.025-.014a1.937 1.937 0 0 0 .507-.4l.038-.041a2.244 2.244 0 0 0 .429-2.269z" fill="#d0e8ff"/><path d="m6 54-1.861 5.056a2.244 2.244 0 0 0 .429 2.273l.043.046a1.946 1.946 0 0 0 .494.39l.015.008a1.809 1.809 0 0 0 1.742.007l.025-.014a1.937 1.937 0 0 0 .507-.4l.038-.041a2.244 2.244 0 0 0 .429-2.273z" fill="#c4e2ff"/><path d="m7.861 59.056-1.361-3.698-1.361 3.7a2.244 2.244 0 0 0 .429 2.273l.043.046a1.946 1.946 0 0 0 .494.39l.015.008a1.829 1.829 0 0 0 .376.149 1.884 1.884 0 0 0 .366-.142l.025-.014a1.937 1.937 0 0 0 .507-.4l.038-.041a2.244 2.244 0 0 0 .429-2.271z" fill="#d0e8ff"/><path d="m13 36a7 7 0 0 1 -7-7 7 7 0 0 1 6.894-7l-.081-.044a10 10 0 0 1 13.946-12.756 14 14 0 0 1 24.88 12.829 7 7 0 0 1 6.361 6.971 7 7 0 0 1 -7 7z" fill="#b3dafe"/><path d="m6.079 30a7 7 0 0 0 6.921 6h38a7 7 0 0 0 6.921-6 7 7 0 0 0 -6.282-5.969 14.137 14.137 0 0 0 .721-1.894 6.879 6.879 0 0 0 -.721-.106 13.952 13.952 0 0 0 1.308-5.084 13.993 13.993 0 0 0 -26.189-5.747 10 10 0 0 0 -14.708 7.788 9.963 9.963 0 0 0 .762 2.966l.081.044c-.231 0-.459.019-.684.044a9.942 9.942 0 0 0 .6 1.912l.081.044a7 7 0 0 0 -6.811 6.002z" fill="#c4e2ff"/><path d="m25.166 14.1a1.008 1.008 0 0 1 -.841-1.216 14.816 14.816 0 0 1 1.063-3.19 1.008 1.008 0 0 1 1.4-.468 1.012 1.012 0 0 1 .4 1.325 12.819 12.819 0 0 0 -.91 2.732 1.013 1.013 0 0 1 -1.112.817z" fill="#b3dafe"/><path d="m29.149 13.871a1.006 1.006 0 0 1 -.842-1.25c1.085-4.032 5-7.134 9.588-7.569a1.01 1.01 0 0 1 1.106 1 .988.988 0 0 1 -.885.989c-3.732.354-7.011 2.9-7.88 6.114a.985.985 0 0 1 -1.087.716z" fill="#fff"/><path d="m37.824 18-14.295 19.381h7.412l-7.941 17.619 18-21.73h-7.412z" fill="#fac600"/><path d="m41 33.27h-5.412-2l3.03-10.924-11.089 15.035h5.412 2l-5.554 12.323z" fill="#fed402"/></g></svg>