<svg id="Capa_1" enable-background="new 0 0 512 512" height="512" viewBox="0 0 512 512" width="512" xmlns="http://www.w3.org/2000/svg"><g><g><g><path d="m256 511.995c258.459-105.845 251.075-403.688 251.075-403.688-81.23-81.23-251.075-108.307-251.075-108.307s-169.845 27.077-251.075 108.307c0 0-7.384 297.843 251.075 403.688z" fill="#a2c6fd"/><path d="m255.999 512c-258.46-105.85-251.074-403.693-251.074-403.693 79.468-79.468 243.749-107.107 250.837-108.261-5.509 1.07-107.043 21.302-178.592 76.268-22.524 17.304-34.58 44.956-32.193 73.259 7.211 85.522 42.29 280.909 211.022 362.427z" fill="#7898d5"/><path d="m256 451.818c-79.921-38.908-136.851-104.787-169.393-196.127-17.999-50.522-23.9-96.887-25.822-123.312 56.862-43.604 151.442-68.455 195.168-76.592 43.737 8.211 138.539 33.203 195.264 76.613-1.921 26.373-7.818 72.75-25.826 123.29-32.541 91.341-89.47 157.22-169.391 196.128z" fill="#f5f0f0"/><path d="m256.003 451.825c-79.921-38.909-136.848-104.789-169.391-196.134-18.007-50.52-23.9-96.888-25.826-123.311 56.866-43.597 151.445-68.455 195.166-76.593-22.145 4.75-59.321 15.196-96.248 31.74-47.023 21.067-73.052 72.145-62.452 122.569 3.043 14.475 6.894 29.833 11.767 45.596 28.236 91.344 77.633 157.223 146.984 196.133z" fill="#e8ded8"/></g></g><g><path d="m339.413 198.453c-10.165-.437-20.33-.789-30.495-1.065-6.144-.167-11.071-5.093-11.237-11.237-.276-10.165-.628-20.33-1.065-30.495-.226-5.258-3.994-9.756-9.157-10.775-20.973-4.138-41.945-4.138-62.918 0-5.163 1.019-8.931 5.517-9.157 10.775-.437 10.165-.789 20.33-1.065 30.495-.167 6.144-5.093 11.071-11.237 11.237-10.165.276-20.33.628-30.495 1.065-5.258.226-9.756 3.994-10.775 9.157-4.138 20.973-4.138 41.945 0 62.918 1.019 5.163 5.517 8.931 10.775 9.157 10.165.437 20.33.789 30.495 1.065 6.144.167 11.071 5.093 11.237 11.237.276 10.165.628 20.33 1.065 30.495.226 5.258 3.994 9.756 9.157 10.775 20.973 4.138 41.945 4.138 62.918 0 5.163-1.019 8.931-5.517 9.157-10.775.437-10.165.789-20.33 1.065-30.495.167-6.144 5.093-11.071 11.237-11.237 10.165-.276 20.33-.628 30.495-1.065 5.258-.226 9.756-3.994 10.775-9.157 4.138-20.973 4.138-41.945 0-62.918-1.019-5.163-5.517-8.931-10.775-9.157z" fill="#dd636e"/></g></g></svg>