<?xml version="1.0" encoding="iso-8859-1"?>
<!-- Generator: Adobe Illustrator 19.0.0, SVG Export Plug-In . SVG Version: 6.00 Build 0)  -->
<svg version="1.1" id="Capa_1" xmlns="http://www.w3.org/2000/svg" xmlns:xlink="http://www.w3.org/1999/xlink" x="0px" y="0px"
	 viewBox="0 0 512 512" style="enable-background:new 0 0 512 512;" xml:space="preserve">
<path style="fill:#555A66;" d="M226.051,122.186h-59.984c-8.289,0-14.996-6.707-14.996-14.996V15.214
	c0-8.289,6.707-14.996,14.996-14.996h59.984c8.289,0,14.996,6.707,14.996,14.996v91.976
	C241.047,115.479,234.34,122.186,226.051,122.186z"/>
<path style="fill:#3C3A41;" d="M346.02,122.186h-59.984c-8.289,0-14.996-6.707-14.996-14.996V15.214
	c0-8.289,6.707-14.996,14.996-14.996h59.984c8.289,0,14.996,6.707,14.996,14.996v91.976
	C361.016,115.479,354.309,122.186,346.02,122.186z"/>
<path style="fill:#CDD2E1;" d="M346.02,92.194H166.067c-24.894,0-44.988,20.094-44.988,44.988v129.865
	c0,8.399,6.597,14.996,14.996,14.996h239.937c8.399,0,14.996-6.597,14.996-14.996V137.182
	C391.008,112.288,370.914,92.194,346.02,92.194z"/>
<path style="fill:#BEC3D2;" d="M376.012,282.042H256.044V92.194h89.976c24.894,0,44.988,20.094,44.988,44.988v129.865
	C391.008,275.444,384.411,282.042,376.012,282.042z"/>
<path style="fill:#BF6015;" d="M450.392,291.64l-42.588,139.464c-5.399-2.099-11.097-4.5-16.195-7.798
	c-26.994-18.295-62.684-18.295-89.976,0c-13.797,8.998-29.692,13.496-45.589,13.496c-15.296,0-30.893-4.5-44.387-13.496
	c-26.994-18.295-62.684-18.295-89.976,0c-5.399,3.599-11.097,6.299-17.396,8.399L61.696,291.64c-2.4-7.796,1.8-16.195,9.597-18.595
	l179.953-59.984c1.5-0.599,2.998-0.899,4.798-0.899c1.8,0,3.299,0.3,4.798,0.899l179.953,59.984
	C448.593,275.444,452.792,283.843,450.392,291.64z"/>
<path style="fill:#994C10;" d="M450.392,291.64l-42.588,139.464c-5.399-2.099-11.097-4.5-16.195-7.798
	c-26.994-18.295-62.684-18.295-89.976,0c-13.797,8.998-29.692,13.496-45.589,13.496V212.162c1.8,0,3.299,0.3,4.798,0.899
	l179.953,59.984C448.593,275.444,452.792,283.843,450.392,291.64z"/>
<g>
	<circle style="fill:#1BD9DE;" cx="196.058" cy="167.176" r="14.996"/>
	<path style="fill:#1BD9DE;" d="M271.04,167.174c0,8.397-6.597,14.996-14.996,14.996c-8.399,0-14.996-6.599-14.996-14.996
		c0-8.399,6.597-14.996,14.996-14.996C264.442,152.178,271.04,158.775,271.04,167.174z"/>
</g>
<g>
	<circle style="fill:#15B7BE;" cx="316.027" cy="167.176" r="14.996"/>
	<path style="fill:#15B7BE;" d="M256.044,182.17v-29.992c8.399,0,14.996,6.597,14.996,14.996
		C271.04,175.571,264.442,182.17,256.044,182.17z"/>
</g>
<g>
	<path style="fill:#1BD9DE;" d="M502.678,489.589c-3.899,1.5-7.798,3.599-11.697,5.998c-16.195,10.797-35.79,16.195-54.385,16.195
		c-18.296,0-36.891-5.399-53.087-16.195c-22.494-14.698-50.987-14.698-73.481,0c-16.496,10.797-35.09,16.195-53.986,16.195
		c-17.994,0-36.589-5.399-52.486-16.195c-22.494-14.698-50.987-14.698-73.481,0c-32.392,21.593-75.079,21.593-107.472,0
		c-4.199-2.7-8.399-4.8-12.897-6.599c-7.798-2.998-11.697-11.697-8.697-19.496c2.998-7.498,11.696-11.395,19.494-8.397
		c6.599,2.4,12.897,5.698,18.595,9.597c22.494,14.696,51.986,14.696,74.48,0c32.392-21.595,74.079-21.595,106.472,0
		c11.097,7.198,23.695,11.097,35.991,11.097c13.197,0,26.093-3.599,37.49-11.097c32.392-21.595,74.079-21.595,106.472,0
		c22.494,14.696,51.986,14.696,74.48,0c5.399-3.599,11.097-6.599,16.796-8.998c7.498-3.3,16.496,0.599,19.496,8.097
		C514.076,477.591,510.477,486.29,502.678,489.589z"/>
	<path style="fill:#1BD9DE;" d="M502.678,429.605c-3.899,1.5-7.798,3.599-11.697,5.998c-16.195,10.797-35.79,16.195-54.385,16.195
		c-18.296,0-36.891-5.399-53.087-16.195c-22.494-14.698-50.987-14.698-73.481,0c-16.496,10.797-35.09,16.195-53.986,16.195
		c-17.994,0-36.589-5.399-52.486-16.195c-22.494-14.698-50.987-14.698-73.481,0c-32.392,21.593-75.079,21.593-107.472,0
		c-4.199-2.7-8.399-4.8-12.897-6.599c-7.798-2.998-11.697-11.697-8.697-19.496c2.998-7.498,11.696-11.395,19.494-8.397
		c6.599,2.4,12.897,5.699,18.595,9.597c22.494,14.696,51.986,14.696,74.48,0c32.392-21.595,74.079-21.595,106.472,0
		c11.097,7.198,23.695,11.097,35.991,11.097c13.197,0,26.093-3.599,37.49-11.097c32.392-21.595,74.079-21.595,106.472,0
		c22.494,14.696,51.986,14.696,74.48,0c5.399-3.599,11.097-6.599,16.796-8.998c7.498-3.3,16.496,0.599,19.496,8.097
		C514.076,417.607,510.477,426.306,502.678,429.605z"/>
</g>
<g>
	<path style="fill:#15B7BE;" d="M510.777,469.793c3.299,7.798-0.3,16.497-8.099,19.796c-3.899,1.5-7.798,3.599-11.697,5.998
		c-16.195,10.797-35.79,16.195-54.385,16.195c-18.296,0-36.891-5.399-53.087-16.195c-22.494-14.698-50.987-14.698-73.481,0
		c-16.496,10.797-35.09,16.195-53.986,16.195V481.79c13.197,0,26.093-3.599,37.49-11.097c32.392-21.595,74.079-21.595,106.472,0
		c22.494,14.696,51.986,14.696,74.48,0c5.399-3.599,11.097-6.599,16.796-8.998C498.78,458.396,507.777,462.295,510.777,469.793z"/>
	<path style="fill:#15B7BE;" d="M310.029,435.603c-16.496,10.797-35.09,16.195-53.986,16.195v-29.992
		c13.197,0,26.093-3.599,37.49-11.097c32.392-21.595,74.079-21.595,106.472,0c22.494,14.696,51.986,14.696,74.48,0
		c5.399-3.599,11.097-6.599,16.796-8.998c7.498-3.3,16.496,0.599,19.496,8.097c3.299,7.798-0.3,16.497-8.099,19.796
		c-3.899,1.5-7.798,3.599-11.697,5.998c-16.195,10.797-35.79,16.195-54.385,16.195c-18.296,0-36.891-5.399-53.087-16.195
		C361.016,420.906,332.523,420.906,310.029,435.603z"/>
</g>
<g>
</g>
<g>
</g>
<g>
</g>
<g>
</g>
<g>
</g>
<g>
</g>
<g>
</g>
<g>
</g>
<g>
</g>
<g>
</g>
<g>
</g>
<g>
</g>
<g>
</g>
<g>
</g>
<g>
</g>
</svg>
