<svg id="Layer_1" enable-background="new 0 0 512.038 512.038" height="512" viewBox="0 0 512.038 512.038" width="512" xmlns="http://www.w3.org/2000/svg"><g><path d="m368.912 171.175v-58.282c0-62.349-50.544-112.893-112.893-112.893-62.349 0-112.893 50.544-112.893 112.893v58.282h66.339v-58.282c0-25.711 20.843-46.554 46.554-46.554 25.711 0 46.554 20.843 46.554 46.554v58.281z" fill="#725d57"/><path d="m256.019 0v66.339c25.711 0 46.554 20.843 46.554 46.554v58.281l66.339.001v-58.282c0-62.349-50.544-112.893-112.893-112.893z" fill="#53433f"/><path d="m343.851 137.599c-31.64 0-63.42 14.606-87.833 39.771-24.412-25.166-56.193-39.771-87.833-39.771-68.888 0-124.933 56.044-124.933 124.933 0 49.742 34.948 106.285 103.872 168.057 49.852 44.679 98.924 75.267 100.989 76.547l7.905 4.902 7.905-4.902c2.065-1.28 51.138-31.868 100.989-76.547 68.924-61.772 103.872-118.315 103.872-168.057.001-68.888-56.044-124.933-124.933-124.933z" fill="#ffda44"/><path d="m343.851 137.599c-31.64 0-63.42 14.606-87.833 39.771v334.667l7.905-4.902c2.065-1.28 51.138-31.868 100.989-76.547 68.924-61.772 103.872-118.315 103.872-168.057.001-68.887-56.044-124.932-124.933-124.932z" fill="#ffb242"/><path d="m256.019 255.494c-29.869 0-54.169 24.3-54.169 54.169 0 13.086 4.752 25.665 13.228 35.455v55.646h81.884v-55.646c8.475-9.79 13.228-22.369 13.228-35.455-.002-29.869-24.302-54.169-54.171-54.169z" fill="#725d57"/><path d="m256.019 255.494v145.27h40.942v-55.646c8.475-9.79 13.228-22.369 13.228-35.455-.001-29.869-24.301-54.169-54.17-54.169z" fill="#53433f"/></g></svg>