<svg id="Artboard_30" enable-background="new 0 0 64 64" height="512" viewBox="0 0 64 64" width="512" xmlns="http://www.w3.org/2000/svg"><g><path d="m56 61h-48c-3.314 0-6-2.686-6-6v-37c0-3.314 2.686-6 6-6h48c3.314 0 6 2.686 6 6v37c0 3.314-2.686 6-6 6z" fill="#a1b6c2"/><path d="m56 12h-47.5v32.5c0 5.523 4.477 10 10 10h43.5v-36.5c0-3.314-2.686-6-6-6z" fill="#dfe6ea"/><g><path d="m36 25h26v2h-26z" fill="#798992"/></g><g><path d="m2 25h26v2h-26z" fill="#798992"/></g><path d="m32 33c-2.209 0-4-1.791-4-4v-6c0-2.209 1.791-4 4-4 2.209 0 4 1.791 4 4v6c0 2.209-1.791 4-4 4z" fill="#393a3a"/><path d="m35 44h4c1.105 0 2 .895 2 2v2c0 1.105-.895 2-2 2h-4v4c0 1.105-.895 2-2 2h-2c-1.105 0-2-.895-2-2v-4h-4c-1.105 0-2-.895-2-2v-2c0-1.105.895-2 2-2h4v-4c0-1.105.895-2 2-2h2c1.105 0 2 .895 2 2z" fill="#953528"/><path d="m42 12v-1c0-2.209-1.791-4-4-4h-12c-2.209 0-4 1.791-4 4v1h-5v-2c0-4.418 3.582-8 8-8h14c4.418 0 8 3.582 8 8v2z" fill="#393a3a"/><path d="m41 48v-2c0-1.105-.895-2-2-2h-2-2v-4c0-1.105-.895-2-2-2s-2 .895-2 2v4h-2-2c-1.105 0-2 .895-2 2v2c0 1.105.895 2 2 2h2 2v4c0 1.105.895 2 2 2s2-.895 2-2v-4h2 2c1.105 0 2-.895 2-2z" fill="#c64635"/><g fill="#434444"><path d="m39 2h-14c-1.893 0-3.63.661-5 1.76v3.24c0 1.498.834 2.789 2.053 3.474.26-1.958 1.918-3.474 3.947-3.474h12c2.209 0 4 1.791 4 4h5v-1c0-4.418-3.582-8-8-8z"/><path d="m32 19c-.718 0-1.382.204-1.964.536-.332.582-.536 1.246-.536 1.964v6c0 2.209 1.791 4 4 4 .718 0 1.382-.204 1.964-.536.332-.582.536-1.246.536-1.964v-6c0-2.209-1.791-4-4-4z"/></g></g><g><path d="m55.999 11h-8v-1c0-4.962-4.038-9-9-9h-14c-4.962 0-9 4.038-9 9v1h-8c-3.86 0-7 3.14-7 7v37c0 3.86 3.14 7 7 7h48c3.86 0 7-3.14 7-7v-37c0-3.86-3.14-7-7-7zm-38-1c0-3.86 3.14-7 7-7h14c3.86 0 7 3.14 7 7v1h-3c0-2.757-2.243-5-5-5h-12c-2.757 0-5 2.243-5 5h-3zm5 1c0-1.654 1.346-3 3-3h12c1.654 0 3 1.346 3 3zm33 49h-48c-2.757 0-5-2.243-5-5v-28h24v2c0 2.757 2.243 5 5 5s5-2.243 5-5v-2h24v28c0 2.757-2.243 5-5 5zm-27-31v-6c0-1.654 1.346-3 3-3s3 1.346 3 3v6c0 1.654-1.346 3-3 3s-3-1.346-3-3zm32-4h-24v-2c0-2.757-2.243-5-5-5s-5 2.243-5 5v2h-24v-7c0-2.757 2.243-5 5-5h48c2.757 0 5 2.243 5 5z"/><path d="m38.999 43h-3v-3c0-1.654-1.346-3-3-3h-2c-1.654 0-3 1.346-3 3v3h-3c-1.654 0-3 1.346-3 3v2c0 1.654 1.346 3 3 3h3v3c0 1.654 1.346 3 3 3h2c1.654 0 3-1.346 3-3v-3h3c1.654 0 3-1.346 3-3v-2c0-1.654-1.346-3-3-3zm1 5c0 .551-.449 1-1 1h-4c-.552 0-1 .448-1 1v4c0 .551-.449 1-1 1h-2c-.551 0-1-.449-1-1v-4c0-.552-.448-1-1-1h-4c-.551 0-1-.449-1-1v-2c0-.551.449-1 1-1h4c.552 0 1-.448 1-1v-4c0-.551.449-1 1-1h2c.551 0 1 .449 1 1v4c0 .552.448 1 1 1h4c.551 0 1 .449 1 1z"/></g></svg>