<?xml version="1.0" encoding="iso-8859-1"?>
<!-- Generator: Adobe Illustrator 19.0.0, SVG Export Plug-In . SVG Version: 6.00 Build 0)  -->
<svg version="1.1" id="Capa_1" xmlns="http://www.w3.org/2000/svg" xmlns:xlink="http://www.w3.org/1999/xlink" x="0px" y="0px"
	 viewBox="0 0 496.63 496.63" style="enable-background:new 0 0 496.63 496.63;" xml:space="preserve">
<g>
	<path style="fill:#6F6F6F;" d="M6.605,378.629v32.784c0,9.666,7.835,17.501,17.501,17.501h43.241
		c9.666,0,17.501-7.835,17.501-17.501v-32.784L6.605,378.629L6.605,378.629z"/>
	<path style="fill:#6F6F6F;" d="M411.767,378.629v32.784c0,9.666,7.835,17.501,17.501,17.501h43.256
		c9.666,0,17.501-7.835,17.501-17.501v-32.784L411.767,378.629L411.767,378.629z"/>
	<path style="fill:#6F6F6F;" d="M490.274,141.635c-0.248-0.171-14.646-3.227-14.957-3.289c-10.659-2.281-21.457,3.243-25.848,13.219
		l-3.165,7.184h-10.907l7.478,14.041l41.022-4.934C497.116,166.258,501.367,149.005,490.274,141.635z"/>
</g>
<path style="fill:#454545;" d="M490.026,240.094v138.457H6.558V240.094c0-19.254,23.102-32.908,23.102-32.908
	c3.15-21.008,23.102-32.551,23.102-32.551l40.603-76.148c19.968-36.057,54.8-30.456,54.8-30.456h200.254
	c0,0,35.002-5.601,54.97,30.456l40.432,76.148c0,0,19.952,11.559,23.102,32.551C466.924,207.187,490.026,220.84,490.026,240.094z"/>
<path style="fill:#168DE2;" d="M436.762,177.677c-13.343-24.111-26.702-49.105-40.076-74.736
	c-9.976-18.385-26.236-29.06-48.268-27.229c-214.652-0.078-205.467-0.326-205.467-0.326c-10.457-0.031-29.96,3.77-42.822,27.462
	c-13.452,25.678-26.888,50.704-40.308,74.83C185.277,187.544,311.307,187.544,436.762,177.677z"/>
<path style="fill:#6F6F6F;" d="M354.206,276.865L341.08,333.93c-2.808,12.086-13.653,20.651-26.081,20.651H181.6
	c-12.428,0-23.273-8.58-26.081-20.651l-13.126-57.065c-4.717-20.651,10.861-40.432,32.039-40.432h147.735
	C343.345,236.417,359.093,256.199,354.206,276.865z"/>
<path style="fill:#CACACA;" d="M135.504,239.598l-90.531-14.972c-12.133-2.001-23.676,6.656-24.638,18.913
	c-0.031,0.295-0.047,0.59-0.062,0.884c-0.621,9.93,5.756,19.022,15.344,21.721c14.553,4.096,36.538,7.354,48.997-5.104l34.071,0.419
	L135.504,239.598z"/>
<g>
	<path style="fill:#6F6F6F;" d="M125.823,329.446c-3.041-4.422-7.897-7.23-13.234-7.664l-71.82-5.772
		c-14.383-1.164-18.897,9.775-20.418,22.823c-1.21,10.426,6.827,19.766,17.315,19.999l68.965,1.536
		c6.765,0.155,9.961-2.731,15.143-6.594C129.454,348.064,131.222,337.312,125.823,329.446z"/>
	<path style="fill:#6F6F6F;" d="M50.326,158.748l-3.165-7.184c-4.406-9.976-15.189-15.5-25.848-13.234
		c-0.31,0.062-14.708,3.134-14.957,3.305c-11.093,7.385-6.842,24.623,6.377,26.221l41.022,4.934l7.478-14.041L50.326,158.748
		L50.326,158.748z"/>
</g>
<rect x="179.118" y="291.217" style="fill:#FFFFFF;" width="138.287" height="29.401"/>
<circle style="fill:#E95353;" cx="43.841" cy="245.183" r="14.864"/>
<path style="fill:#CACACA;" d="M361.126,239.598l90.531-14.972c12.133-2.001,23.676,6.656,24.638,18.913
	c0.016,0.295,0.047,0.59,0.062,0.884c0.621,9.93-5.756,19.022-15.344,21.721c-14.553,4.096-36.538,7.354-48.997-5.104l-34.071,0.419
	L361.126,239.598z"/>
<path style="fill:#6F6F6F;" d="M455.861,316.01l-71.82,5.772c-5.337,0.434-10.209,3.243-13.234,7.664
	c-5.756,8.394-4.686,17.827,8.161,27.4c3.181,2.374,7.059,3.615,11.031,3.522l68.965-1.536c10.488-0.233,18.525-9.573,17.315-19.999
	C474.774,325.784,470.244,314.846,455.861,316.01z"/>
<circle style="fill:#E95353;" cx="452.789" cy="245.183" r="14.864"/>
<g>
	<path style="fill:#FFFFFF;" d="M280.695,242.065c-9.914,0-17.982,8.068-17.982,17.982c0,9.914,8.068,17.998,17.982,17.998
		s17.982-8.068,17.982-17.998C298.677,250.117,290.609,242.065,280.695,242.065z M280.695,274.336
		c-7.882,0-14.289-6.408-14.289-14.305c0-7.882,6.408-14.289,14.289-14.289c7.882,0,14.289,6.408,14.289,14.289
		C294.985,267.928,288.577,274.336,280.695,274.336z"/>
	<path style="fill:#FFFFFF;" d="M259.114,242.065c-9.914,0-17.982,8.068-17.982,17.982c0,9.914,8.068,17.998,17.982,17.998
		c9.914,0,17.982-8.068,17.982-17.998C277.096,250.117,269.028,242.065,259.114,242.065z M259.114,274.336
		c-7.882,0-14.289-6.408-14.289-14.305c0-7.882,6.408-14.289,14.289-14.289s14.289,6.408,14.289,14.289
		C273.403,267.928,266.995,274.336,259.114,274.336z"/>
	<path style="fill:#FFFFFF;" d="M237.532,242.065c-9.914,0-17.982,8.068-17.982,17.982c0,9.914,8.068,17.998,17.982,17.998
		c9.914,0,17.982-8.068,17.982-17.998C255.514,250.117,247.446,242.065,237.532,242.065z M237.532,274.336
		c-7.882,0-14.289-6.408-14.289-14.305c0-7.882,6.408-14.289,14.289-14.289c7.882,0,14.289,6.408,14.289,14.289
		C251.822,267.928,245.414,274.336,237.532,274.336z"/>
	<path style="fill:#FFFFFF;" d="M215.95,242.065c-9.914,0-17.982,8.068-17.982,17.982c0,9.914,8.068,17.998,17.982,17.998
		c9.914,0,17.982-8.068,17.982-17.998C233.933,250.117,225.865,242.065,215.95,242.065z M215.95,274.336
		c-7.882,0-14.289-6.408-14.289-14.305c0-7.882,6.408-14.289,14.289-14.289c7.882,0,14.289,6.408,14.289,14.289
		C230.24,267.928,223.832,274.336,215.95,274.336z"/>
</g>
<path style="fill:#209AE5;" d="M263.023,127.951V93.693c0-5.477,4.53-10.007,10.147-10.007h0.822
	c5.477-0.419,10.147,4.112,10.147,9.449v33.513c0,6.578,4.794,12.335,11.233,12.738c6.997,0.279,12.738-5.198,12.738-12.055v-24.979
	c0-5.477,4.53-10.007,10.007-10.007h0.822c5.896,0,10.69,4.794,10.69,10.55v19.239c0,6.439,4.934,12.335,11.373,12.614
	c6.858,0.403,12.738-5.073,12.738-11.916v-22.125c0-5.756,4.794-10.147,10.55-10.007c0.14,0,0.14,0,0.14,0c0.14,0,0.14,0,0.279,0
	c5.756-0.14,10.55,4.251,10.55,10.007v24.436c0,6.578,4.934,12.335,11.373,12.738c6.997,0.279,12.614-5.213,12.614-12.055V107.75
	c-0.853-1.614-1.691-3.181-2.544-4.81c-9.976-18.385-26.236-29.06-48.268-27.229c-214.668-0.078-205.483-0.326-205.483-0.326
	c-10.457-0.031-29.96,3.77-42.822,27.462c-0.931,1.753-1.846,3.444-2.777,5.213v14.072c0,6.439,4.934,12.335,11.512,12.614
	c6.858,0.403,12.614-5.073,12.614-11.916v-22.125c0-5.756,4.794-10.147,10.69-10.007c0,0,0,0,0.14,0c0,0,0,0,0.14,0
	c5.741-0.14,10.674,4.251,10.674,10.007v24.436c0,6.578,4.794,12.335,11.233,12.738c6.873,0.264,12.49-5.042,12.676-11.745V93.507
	c0-6.858,5.71-12.335,12.645-12.024c6.47,0.388,11.326,6.175,11.326,12.645v31.17c0.186,6.284,4.996,11.838,11.311,12.241
	c6.982,0.279,12.614-5.213,12.614-12.055l0.14-26.562c0-6.858,5.616-12.335,12.614-12.055c6.439,0.403,11.373,6.175,11.373,12.738
	v28.75c0.14,6.439,5.477,11.652,11.916,11.652C257.686,140.006,263.023,134.529,263.023,127.951z"/>
<g>
</g>
<g>
</g>
<g>
</g>
<g>
</g>
<g>
</g>
<g>
</g>
<g>
</g>
<g>
</g>
<g>
</g>
<g>
</g>
<g>
</g>
<g>
</g>
<g>
</g>
<g>
</g>
<g>
</g>
</svg>
